<svg xmlns="http://www.w3.org/2000/svg" viewBox="0 0 119.83 38.26"><title>lgReservisTerminal</title><path d="M22.13,7.88l-5.95,6a.08.08,0,0,0,0,0,.9.9,0,0,1-1.28,0L10.91,10l-2.7,2.69,7.27,7.26,9.35-9.33Z" fill="#277db7"/><path d="M15.3,3.41A11.88,11.88,0,0,1,27.18,15.29c0,3.5-1,5.91-3.94,8.83l-9.37,9.3v4.84L26.45,25.75a14.52,14.52,0,0,0,4.14-10.46A15.3,15.3,0,0,0,18.18.27,16.52,16.52,0,0,0,14.78,0a15.29,15.29,0,0,0-.92,30.51V27.08a11.88,11.88,0,0,1,.92-23.66Z" fill="#4d4d4d"/><path d="M37.51,21.62V9.85h3.31v.43a.29.29,0,0,0,.2.28.16.16,0,0,0,.1,0,.3.3,0,0,0,.23-.11,3.27,3.27,0,0,1,2.5-1v3.44a4.16,4.16,0,0,0-2.16.54,2,2,0,0,0-.7,1.71v6.48Z" fill="#277db7"/><path d="M50.08,22.05a6.19,6.19,0,0,1-6.38-6.29,6,6,0,0,1,1.81-4.45,5.89,5.89,0,0,1,4.4-1.87,6,6,0,0,1,4.51,1.87,6.34,6.34,0,0,1,1.83,4.6,7.5,7.5,0,0,1-.08.9H47.44a.3.3,0,0,0-.24.12.31.31,0,0,0-.05.25,2.6,2.6,0,0,0,2.63,2,2.82,2.82,0,0,0,1.44-.32,8,8,0,0,0,1-.79h3.58C54.51,20.6,52.46,22.05,50.08,22.05ZM50,12.34a2.58,2.58,0,0,0-2.71,1.82.32.32,0,0,0,0,.27.31.31,0,0,0,.25.13h4.83a.28.28,0,0,0,.24-.13.29.29,0,0,0,0-.27A2.77,2.77,0,0,0,50,12.34Z" fill="#277db7"/><path d="M61.2,17.05l-.41-.1-1.66-.43a3.38,3.38,0,0,1-1.84-1.19A3.33,3.33,0,0,1,58,10.58a5.44,5.44,0,0,1,3.44-1.14A4.36,4.36,0,0,1,65.05,11a4.2,4.2,0,0,1,.78,2H62.37a1.47,1.47,0,0,0-.12-.43,1,1,0,0,0-1-.45c-1,0-1.2.51-1.2.82,0,.74,1,1.11,1.92,1.34a8.41,8.41,0,0,1,3.16,1.35,3.13,3.13,0,0,1,1,2.4,3.42,3.42,0,0,1-1.43,2.79,5.59,5.59,0,0,1-3.55,1.16,5,5,0,0,1-3.51-1.27,4,4,0,0,1-1.25-2.57H60a1.34,1.34,0,0,0,1.43,1.07,1.17,1.17,0,0,0,1.27-1,.93.93,0,0,0-.49-.79l-.31-.17S61.4,17.11,61.2,17.05Z" fill="#277db7"/><path d="M106.65,17.16l-.41-.1-1.65-.43a3.35,3.35,0,0,1-1.84-1.19,3.25,3.25,0,0,1-.71-2,3.32,3.32,0,0,1,1.39-2.71,5.46,5.46,0,0,1,3.44-1.14,4.39,4.39,0,0,1,3.64,1.59,4.16,4.16,0,0,1,.77,2h-3.45a1.46,1.46,0,0,0-.13-.43,1,1,0,0,0-1-.45c-1,0-1.21.51-1.21.82,0,.74,1,1.11,1.92,1.34a8.41,8.41,0,0,1,3.16,1.35,3.13,3.13,0,0,1,1,2.4A3.39,3.39,0,0,1,110.23,21a5.55,5.55,0,0,1-3.55,1.16,5,5,0,0,1-3.51-1.27,4.08,4.08,0,0,1-1.24-2.58h3.51a1.36,1.36,0,0,0,1.43,1.08,1.17,1.17,0,0,0,1.27-1,.91.91,0,0,0-.48-.79l-.32-.17S106.86,17.22,106.65,17.16Z" fill="#4d4c4d"/><path d="M72.8,22.05a6.22,6.22,0,0,1-4.56-1.8,6.12,6.12,0,0,1-1.82-4.49,6,6,0,0,1,1.81-4.45,5.89,5.89,0,0,1,4.4-1.87,6.05,6.05,0,0,1,4.51,1.87A6.33,6.33,0,0,1,79,15.91c0,.22,0,.52-.07.9H70.16a.3.3,0,0,0-.24.12.31.31,0,0,0,0,.25,2.6,2.6,0,0,0,2.63,2,2.75,2.75,0,0,0,1.43-.32,7.28,7.28,0,0,0,1-.79h3.58C77.23,20.6,75.18,22.05,72.8,22.05Zm-.11-9.71A2.58,2.58,0,0,0,70,14.16a.32.32,0,0,0,0,.27.31.31,0,0,0,.25.13H75.1a.31.31,0,0,0,.24-.13.29.29,0,0,0,0-.27A2.77,2.77,0,0,0,72.69,12.34Z" fill="#277db7"/><path d="M79.35,21.62V9.85h3.31v.43a.3.3,0,0,0,.19.28.22.22,0,0,0,.11,0,.31.31,0,0,0,.23-.11,2.58,2.58,0,0,1,1.25-.81l1.13,3.24a3.89,3.89,0,0,0-2,.53,2,2,0,0,0-.7,1.71v6.48Z" fill="#277db7"/><path d="M89.62,21.62,85.3,9.85h3.64L91,16.5a.28.28,0,0,0,.27.2h0a.29.29,0,0,0,.28-.2l2.1-6.65h3.65L93,21.62Z" fill="#4d4c4d"/><rect x="97.62" y="9.96" width="3.54" height="11.77" fill="#4d4c4d"/><path d="M50.13,35.67a6.19,6.19,0,0,1-6.38-6.29,6,6,0,0,1,1.8-4.44A5.91,5.91,0,0,1,50,23.08a6,6,0,0,1,4.5,1.86,6.3,6.3,0,0,1,1.83,4.6,7.58,7.58,0,0,1-.07.81H47.45a.4.4,0,0,0-.39.5,2.73,2.73,0,0,0,2.76,2.09,3.06,3.06,0,0,0,1.5-.33,8.49,8.49,0,0,0,1-.8h3.44C54.47,34.27,52.45,35.67,50.13,35.67ZM50,25.83a2.7,2.7,0,0,0-2.84,1.9.42.42,0,0,0,0,.36.4.4,0,0,0,.33.17h4.9a.4.4,0,0,0,.32-.17.38.38,0,0,0,0-.36A2.9,2.9,0,0,0,50,25.83Z" fill="#b3b3b3"/><path d="M57,35.23V23.49H60.2v.34a.4.4,0,0,0,.26.38l.14,0a.41.41,0,0,0,.31-.14,3.23,3.23,0,0,1,2.36-.9v3.12a3.64,3.64,0,0,0-2.26,1,3.85,3.85,0,0,0-.64,2.36v5.61Z" fill="#b3b3b3"/><rect x="79.35" y="23.38" width="3.51" height="11.85" fill="#b3b3b3"/><path d="M103.21,35.67a5.86,5.86,0,0,1-4.39-1.75,6.23,6.23,0,0,1-1.68-4.56,6.21,6.21,0,0,1,1.72-4.53,5.81,5.81,0,0,1,4.44-1.77,4,4,0,0,1,3.14,1.06.39.39,0,0,0,.3.13l.14,0a.4.4,0,0,0,.26-.38v-.36h3.18V35.23h-3.18v-.34a.4.4,0,0,0-.26-.37.32.32,0,0,0-.14,0,.43.43,0,0,0-.3.13A4.21,4.21,0,0,1,103.21,35.67Zm.5-9.68a3.31,3.31,0,0,0-3.37,3.35,3.33,3.33,0,0,0,3.39,3.41,3.38,3.38,0,1,0,0-6.76Z" fill="#b3b3b3"/><path d="M92.83,35.23V28.82a3.3,3.3,0,0,0-.48-1.9,2.3,2.3,0,0,0-1.87-.77,2.55,2.55,0,0,0-2.07.91,2.76,2.76,0,0,0-.38,1.6v6.57H84.67V23.49h3.16v.43a.4.4,0,0,0,.26.37.32.32,0,0,0,.14,0,.43.43,0,0,0,.3-.13,4,4,0,0,1,3-1.11A5.19,5.19,0,0,1,95,24.25c.9.87,1.18,1.75,1.18,3.61v7.37Z" fill="#b3b3b3"/><path d="M77.5,25.85a3.46,3.46,0,0,0-1-1.6A5.27,5.27,0,0,0,73,23.08a4.46,4.46,0,0,0-3.73,1.77.4.4,0,0,1-.32.17h0a.43.43,0,0,1-.33-.17A3.69,3.69,0,0,0,65.4,23a3.82,3.82,0,0,0-1.24.17v3a4.43,4.43,0,0,1,.62,0c.94,0,1.52.73,1.52,2.69v6.41h3.36V28.82c0-2.21,1.4-2.67,2.41-2.67,1.7,0,2.32,1.51,2.32,2.82v6.26h3.38V28.82A10.85,10.85,0,0,0,77.5,25.85Z" fill="#b3b3b3"/><path d="M115.63,32.78a.42.42,0,0,1-.42-.42v-9h-3.38v9.81a2,2,0,0,0,2.22,2h5.78l-.91-2.45Z" fill="#b3b3b3"/><path d="M33.79,23.38v.05l.89,2.4h2.5a.4.4,0,0,1,.4.4v9H41v-9a.4.4,0,0,1,.4-.4h3.26V23.38Z" fill="#b3b3b3"/></svg>